<svg width="79" height="78" viewBox="0 0 79 78" fill="none" xmlns="http://www.w3.org/2000/svg">
<path d="M10.6872 21.6882C10.6872 24.3609 8.51635 26.5318 5.84363 26.5318C3.1709 26.5318 1 24.3609 1 21.6882C1 19.0155 3.1709 16.8446 5.84363 16.8446C8.51635 16.8446 10.6872 19.0098 10.6872 21.6882Z" stroke="#4D2C5E" stroke-opacity="0.1" stroke-width="2" stroke-miterlimit="10" stroke-linecap="round" stroke-linejoin="round"/>
<path d="M57.6799 63.6963C60.3549 63.6963 62.5235 61.5277 62.5235 58.8527C62.5235 56.1776 60.3549 54.009 57.6799 54.009C55.0048 54.009 52.8362 56.1776 52.8362 58.8527C52.8362 61.5277 55.0048 63.6963 57.6799 63.6963Z" stroke="#4D2C5E" stroke-opacity="0.1" stroke-width="2" stroke-miterlimit="10" stroke-linecap="round" stroke-linejoin="round"/>
<path d="M39.4444 48.8948C45.1495 48.8948 49.7744 44.2699 49.7744 38.5648C49.7744 32.8597 45.1495 28.2347 39.4444 28.2347C33.7393 28.2347 29.1144 32.8597 29.1144 38.5648C29.1144 44.2699 33.7393 48.8948 39.4444 48.8948Z" stroke="#4D2C5E" stroke-opacity="0.1" stroke-width="2" stroke-miterlimit="10" stroke-linecap="round" stroke-linejoin="round"/>
<path d="M57.4431 38.5648L53.9978 44.5869L52.1709 51.2913L45.4722 53.1125L39.4444 56.5634L33.4167 53.1125L26.7124 51.2913L24.891 44.5869L21.4402 38.5648L24.891 32.5371L26.7124 25.8327L33.4167 24.0114L39.4444 20.5605L45.4722 24.0114L52.1709 25.8327L53.9978 32.5371L57.4431 38.5648Z" stroke="#4D2C5E" stroke-opacity="0.1" stroke-width="2" stroke-miterlimit="10" stroke-linecap="round" stroke-linejoin="round"/>
<path d="M52.8363 58.8526C52.8363 56.1799 55.0072 54.009 57.6799 54.009C59.1234 54.009 60.4203 54.6462 61.3055 55.6499C64.9932 50.9359 67.198 45.0097 67.198 38.5591C67.198 23.2275 54.7704 10.7999 39.4388 10.7999C24.1073 10.7999 11.6797 23.2275 11.6797 38.5591C11.6797 53.8906 24.1073 66.3182 39.4388 66.3182C44.8294 66.3182 49.8534 64.7789 54.1106 62.1231C53.3268 61.2603 52.8363 60.1157 52.8363 58.8526Z" stroke="#4D2C5E" stroke-opacity="0.1" stroke-width="2" stroke-miterlimit="10" stroke-linecap="round" stroke-linejoin="round"/>
<path d="M39.4444 1C26.4924 1 15.0685 7.55777 8.31902 17.5326C9.73432 18.3784 10.6872 19.9234 10.6872 21.6939C10.6872 24.3666 8.51636 26.5375 5.84364 26.5375C5.18391 26.5375 4.55803 26.4022 3.98853 26.1654C2.62961 30.0504 1.88528 34.2174 1.88528 38.5648C1.88528 59.3094 18.7054 76.1296 39.4501 76.1296C60.1947 76.1296 77.0148 59.3094 77.0148 38.5648C77.0148 17.8201 60.1891 1 39.4444 1Z" stroke="#4D2C5E" stroke-opacity="0.1" stroke-width="2" stroke-miterlimit="10" stroke-linecap="round" stroke-linejoin="round"/>
</svg>
