<svg width="94" height="96" viewBox="0 0 94 96" fill="none" xmlns="http://www.w3.org/2000/svg">
<path d="M44.8412 80.2257L21.5352 72.3102C19.0724 71.4759 17.7576 68.7996 18.5919 66.3368C19.4262 63.8741 22.1025 62.5593 24.5585 63.3936L47.8645 71.3091C50.3273 72.1433 51.6421 74.8196 50.8078 77.2757C49.9736 79.7451 47.3039 81.0666 44.8412 80.2257Z" stroke="#4D2C5E" stroke-opacity="0.1" stroke-width="3" stroke-miterlimit="10"/>
<path d="M41.7777 89.2491L18.4717 81.3336C16.009 80.4993 14.6941 77.823 15.5284 75.3669C16.3627 72.9042 19.039 71.5893 21.5017 72.4236L44.8078 80.3325C47.2705 81.1667 48.5853 83.843 47.751 86.3058C46.9101 88.7685 44.2404 90.0833 41.7777 89.2491Z" stroke="#4D2C5E" stroke-opacity="0.1" stroke-width="3" stroke-miterlimit="10"/>
<path d="M21.0613 39.0531C21.088 39.1331 21.108 39.2066 21.1347 39.2867C21.6553 40.9485 24.7254 51.4802 23.444 63.1666L48.4452 71.4158C54.3718 61.2645 63.1082 54.6371 64.5164 53.6093C64.5832 53.5626 64.6499 53.5159 64.71 53.4692C65.3908 52.9819 66.0515 52.4613 66.6922 51.9074C70.4564 48.6571 73.4197 44.379 75.0882 39.32C80.007 24.4234 71.918 8.35885 57.0214 3.44004C42.1248 -1.47878 26.0602 6.61024 21.1414 21.5068C19.4662 26.5725 19.2994 31.7716 20.3939 36.6237C20.5808 37.438 20.801 38.2522 21.0613 39.0531Z" stroke="#4D2C5E" stroke-opacity="0.1" stroke-width="3" stroke-miterlimit="10"/>
<path d="M19.7464 81.8809C19.4661 86.8197 22.5095 91.5249 27.435 93.1534C32.2938 94.7552 37.4662 92.8531 40.2159 88.8286L19.7464 81.8809Z" stroke="#4D2C5E" stroke-opacity="0.1" stroke-width="3" stroke-miterlimit="10"/>
<path d="M31.2726 65.616L38.7009 43.1043C39.4351 40.8884 38.227 38.4991 36.0112 37.765C33.7954 37.0308 31.4061 38.2388 30.6719 40.4547C29.9378 42.6705 31.1458 45.0598 33.3616 45.7939L42.2782 48.7372" stroke="#4D2C5E" stroke-opacity="0.1" stroke-width="3" stroke-miterlimit="10"/>
<path d="M41.0703 68.853L48.4985 46.3413C49.2327 44.1255 51.622 42.9241 53.8378 43.6516C56.0536 44.3857 57.255 46.7751 56.5275 48.9909C55.7934 51.2067 53.404 52.408 51.1882 51.6805L42.2716 48.7372" stroke="#4D2C5E" stroke-opacity="0.1" stroke-width="3" stroke-miterlimit="10"/>
<path d="M80.3674 47.0754L87.8958 49.5649" stroke="#4D2C5E" stroke-opacity="0.1" stroke-width="3" stroke-miterlimit="10" stroke-linecap="round"/>
<path d="M83.8179 37.5914L91.66 36.4102" stroke="#4D2C5E" stroke-opacity="0.1" stroke-width="3" stroke-miterlimit="10" stroke-linecap="round"/>
<path d="M75.1015 55.2112L80.6944 60.8308" stroke="#4D2C5E" stroke-opacity="0.1" stroke-width="3" stroke-miterlimit="10" stroke-linecap="round"/>
<path d="M10.4426 23.9962L2.91428 21.5134" stroke="#4D2C5E" stroke-opacity="0.1" stroke-width="3" stroke-miterlimit="10" stroke-linecap="round"/>
<path d="M13.3192 14.3188L7.72638 8.69922" stroke="#4D2C5E" stroke-opacity="0.1" stroke-width="3" stroke-miterlimit="10" stroke-linecap="round"/>
<path d="M9.83533 33.667L1.99994 34.8483" stroke="#4D2C5E" stroke-opacity="0.1" stroke-width="3" stroke-miterlimit="10" stroke-linecap="round"/>
</svg>
