<svg width="94" height="117" viewBox="0 0 94 117" fill="none" xmlns="http://www.w3.org/2000/svg">
<path d="M78.538 106.642L46.1034 114.13L44.645 107.807C44.31 106.342 45.2172 104.884 46.6826 104.542L73.8137 98.2753C75.2791 97.9404 76.7375 98.8475 77.0795 100.313L78.538 106.642Z" stroke="#4D2C5E" stroke-opacity="0.1" stroke-width="3" stroke-miterlimit="10" stroke-linecap="round"/>
<path d="M67.877 72.6433C82.1734 61.1162 84.4184 40.1822 72.8913 25.8858C61.3642 11.5895 40.4301 9.3445 26.1337 20.8716C11.8374 32.3987 9.59248 53.3327 21.1196 67.6291C32.6466 81.9254 53.5806 84.1704 67.877 72.6433Z" stroke="#4D2C5E" stroke-opacity="0.1" stroke-width="3" stroke-miterlimit="10"/>
<path d="M62.4813 76.1754L31.4702 17.3495L27.5974 10.2108C7.38165 20.8665 -0.364145 45.8902 10.2915 66.1059C20.9472 86.3217 45.9709 94.0674 66.1866 83.4118L62.3975 76.2243" stroke="#4D2C5E" stroke-opacity="0.1" stroke-width="3" stroke-miterlimit="10" stroke-linecap="round" stroke-linejoin="round"/>
<path d="M38.305 30.2394C48.4575 24.8865 55.1622 17.6536 53.2803 14.0841C51.3983 10.5147 41.6424 11.9605 31.4898 17.3134C21.3372 22.6662 14.6326 29.8992 16.5145 33.4686C18.3965 37.0381 28.1524 35.5923 38.305 30.2394Z" stroke="#4D2C5E" stroke-opacity="0.1" stroke-width="3" stroke-miterlimit="10"/>
<path d="M40.6884 79.4063C47.8549 80.7879 55.524 79.8459 62.4812 76.1754C69.4385 72.5049 74.5534 66.713 77.4633 60.0209C70.2968 58.6393 62.6278 59.5813 55.6705 63.2518C48.7063 66.9224 43.5983 72.7142 40.6884 79.4063Z" stroke="#4D2C5E" stroke-opacity="0.1" stroke-width="3" stroke-miterlimit="10"/>
<path d="M62.5068 76.1393C70.6275 71.8577 70.2674 55.2178 61.7025 38.973C53.1375 22.7282 39.611 13.0301 31.4903 17.3117C23.3696 21.5933 23.7298 38.2332 32.2948 54.478C40.8598 70.7228 54.3861 80.4209 62.5068 76.1393Z" stroke="#4D2C5E" stroke-opacity="0.1" stroke-width="3" stroke-miterlimit="10"/>
<path d="M17.5627 62.2679L76.3886 31.257" stroke="#4D2C5E" stroke-opacity="0.1" stroke-width="3" stroke-miterlimit="10"/>
<path d="M56.6335 87.0334L60.0667 101.353" stroke="#4D2C5E" stroke-opacity="0.1" stroke-width="3" stroke-miterlimit="10"/>
<path d="M42.2096 115.462L83.5552 105.547" stroke="#4D2C5E" stroke-opacity="0.1" stroke-width="3" stroke-miterlimit="10" stroke-linecap="round"/>
</svg>
