<svg width="83" height="88" viewBox="0 0 83 88" fill="none" xmlns="http://www.w3.org/2000/svg">
<path d="M41.7199 62.6356C63.4137 62.6356 80.9999 54.2995 80.9999 44.0164C80.9999 33.7333 63.4137 25.3972 41.7199 25.3972C20.0262 25.3972 2.43994 33.7333 2.43994 44.0164C2.43994 54.2995 20.0262 62.6356 41.7199 62.6356Z" stroke="#4D2C5E" stroke-opacity="0.1" stroke-width="3" stroke-miterlimit="10" stroke-linecap="round" stroke-linejoin="round"/>
<path d="M57.6049 53.7216C68.8857 35.193 70.9107 15.8378 62.1279 10.4906C53.3451 5.14341 37.0804 15.8291 25.7997 34.3577C14.5189 52.8863 12.4939 72.2415 21.2767 77.5887C30.0595 82.9359 46.3242 72.2503 57.6049 53.7216Z" stroke="#4D2C5E" stroke-opacity="0.1" stroke-width="3" stroke-miterlimit="10" stroke-linecap="round" stroke-linejoin="round"/>
<path d="M62.1203 77.5804C70.9031 72.2332 68.8781 52.878 57.5973 34.3494C46.3166 15.8208 30.0519 5.13514 21.2691 10.4823C12.4863 15.8295 14.5113 35.1847 25.7921 53.7134C37.0728 72.242 53.3375 82.9276 62.1203 77.5804Z" stroke="#4D2C5E" stroke-opacity="0.1" stroke-width="3" stroke-miterlimit="10" stroke-linecap="round" stroke-linejoin="round"/>
<path d="M41.7199 48.945C44.442 48.945 46.6487 46.7383 46.6487 44.0162C46.6487 41.2941 44.442 39.0874 41.7199 39.0874C38.9978 39.0874 36.7911 41.2941 36.7911 44.0162C36.7911 46.7383 38.9978 48.945 41.7199 48.945Z" stroke="#4D2C5E" stroke-opacity="0.1" stroke-width="3" stroke-miterlimit="10" stroke-linecap="round" stroke-linejoin="round"/>
</svg>
